<svg width="22" height="28" viewBox="0 0 22 28" fill="none" xmlns="http://www.w3.org/2000/svg">
<path d="M11 14.0001C11.7334 14.0001 12.3614 13.7387 12.884 13.2161C13.4058 12.6943 13.6667 12.0667 13.6667 11.3334C13.6667 10.6001 13.4058 9.97208 12.884 9.44941C12.3614 8.92764 11.7334 8.66675 11 8.66675C10.2667 8.66675 9.63915 8.92764 9.11737 9.44941C8.59471 9.97208 8.33337 10.6001 8.33337 11.3334C8.33337 12.0667 8.59471 12.6943 9.11737 13.2161C9.63915 13.7387 10.2667 14.0001 11 14.0001ZM11 27.3334C7.42226 24.289 4.75026 21.461 2.98404 18.8494C1.21693 16.2387 0.333374 13.8223 0.333374 11.6001C0.333374 8.26675 1.40582 5.61119 3.55071 3.63341C5.69471 1.65564 8.17782 0.666748 11 0.666748C13.8223 0.666748 16.3054 1.65564 18.4494 3.63341C20.5943 5.61119 21.6667 8.26675 21.6667 11.6001C21.6667 13.8223 20.7836 16.2387 19.0174 18.8494C17.2503 21.461 14.5778 24.289 11 27.3334Z" fill="#6EA2C9"/>
</svg>
