<svg width="28" height="28" viewBox="0 0 28 28" fill="none" xmlns="http://www.w3.org/2000/svg">
<path d="M0.671977 27.3332L2.47464 20.7092C1.28683 18.673 0.662772 16.3572 0.666644 13.9998C0.666644 6.63584 6.63598 0.666504 14 0.666504C21.364 0.666504 27.3333 6.63584 27.3333 13.9998C27.3333 21.3638 21.364 27.3332 14 27.3332C11.6437 27.337 9.32885 26.7134 7.29331 25.5265L0.671977 27.3332ZM9.18798 7.74384C9.01579 7.75453 8.84754 7.79988 8.69331 7.87717C8.54867 7.95908 8.41664 8.06147 8.30131 8.18117C8.14131 8.33184 8.05064 8.4625 7.95331 8.58917C7.46053 9.2305 7.19546 10.0177 7.19998 10.8265C7.20264 11.4798 7.37331 12.1158 7.63998 12.7105C8.18531 13.9132 9.08264 15.1865 10.268 16.3665C10.5533 16.6505 10.832 16.9358 11.132 17.2012C12.6032 18.4965 14.3563 19.4306 16.252 19.9292L17.0106 20.0452C17.2573 20.0585 17.504 20.0398 17.752 20.0278C18.1403 20.0078 18.5195 19.9026 18.8626 19.7198C19.0373 19.6299 19.2077 19.532 19.3733 19.4265C19.3733 19.4265 19.4306 19.3892 19.54 19.3065C19.72 19.1732 19.8306 19.0785 19.98 18.9225C20.0906 18.8078 20.1866 18.6732 20.26 18.5198C20.364 18.3025 20.468 17.8878 20.5106 17.5425C20.5426 17.2785 20.5333 17.1345 20.5293 17.0452C20.524 16.9025 20.4053 16.7545 20.276 16.6918L19.5 16.3438C19.5 16.3438 18.34 15.8385 17.632 15.5158C17.5573 15.4833 17.4773 15.4648 17.396 15.4612C17.3048 15.4518 17.2126 15.4621 17.1256 15.4913C17.0387 15.5205 16.959 15.568 16.892 15.6305V15.6278C16.8853 15.6278 16.796 15.7038 15.832 16.8718C15.7766 16.9462 15.7004 17.0024 15.613 17.0332C15.5257 17.0641 15.4311 17.0683 15.3413 17.0452C15.2544 17.0219 15.1693 16.9925 15.0866 16.9572C14.9213 16.8878 14.864 16.8612 14.7506 16.8118L14.744 16.8092C13.9812 16.4761 13.2749 16.0263 12.6506 15.4758C12.4826 15.3292 12.3266 15.1692 12.1666 15.0145C11.6421 14.5122 11.1849 13.9439 10.8066 13.3238L10.728 13.1972C10.6715 13.1121 10.6258 13.0202 10.592 12.9238C10.5413 12.7278 10.6733 12.5705 10.6733 12.5705C10.6733 12.5705 10.9973 12.2158 11.148 12.0238C11.2734 11.8643 11.3905 11.6983 11.4986 11.5265C11.656 11.2732 11.7053 11.0132 11.6226 10.8118C11.2493 9.89984 10.8626 8.99184 10.4653 8.0905C10.3866 7.91184 10.1533 7.78384 9.94131 7.7585C9.86931 7.7505 9.79731 7.7425 9.72531 7.73717C9.54625 7.72827 9.36682 7.73006 9.18798 7.7425V7.74384Z" fill="white"/>
</svg>
