<svg width="32" height="24" viewBox="0 0 32 24" fill="none" xmlns="http://www.w3.org/2000/svg">
<path d="M31.79 5.29937C31.79 2.48687 29.7213 0.224375 27.165 0.224375C23.7025 0.0624998 20.1713 0 16.5625 0H15.4375C11.8375 0 8.30001 0.0624999 4.83751 0.225C2.28751 0.225 0.218764 2.5 0.218764 5.3125C0.0625139 7.53687 -0.00373614 9.76188 1.38566e-05 11.9869C-0.00623614 14.2119 0.0645972 16.439 0.212514 18.6681C0.212514 21.4806 2.28126 23.7619 4.83126 23.7619C8.46876 23.9306 12.2 24.0056 15.9938 23.9994C19.7938 24.0119 23.5146 23.9327 27.1563 23.7619C29.7125 23.7619 31.7813 21.4806 31.7813 18.6681C31.9313 16.4369 32 14.2119 31.9938 11.9806C32.0079 9.75562 31.94 7.52854 31.79 5.29937ZM12.9375 18.1181V5.83687L22 11.9744L12.9375 18.1181Z" fill="white"/>
</svg>
