<svg width="103" height="125" viewBox="0 0 103 125" fill="none" xmlns="http://www.w3.org/2000/svg">
<path d="M4.59528 73.8965C2.03047 76.6561 2.24212 80.9246 5.00165 83.4894C7.76118 86.0542 12.0338 85.9535 14.5986 83.194L19.2473 78.1923C21.8121 75.4328 26.1381 75.2746 28.8977 77.8394L57.5865 104.672C60.3461 107.237 64.6186 107.136 67.1834 104.377C69.7483 101.617 69.59 97.2913 66.8305 94.7265L38.1417 67.8936C35.3821 65.3288 35.2239 61.0027 37.7887 58.2432L42.384 53.299C44.9488 50.5395 44.7906 46.2135 42.0311 43.6487C39.2715 41.0839 34.9455 41.2421 32.3807 44.0016L4.59528 73.8965Z" fill="#3B91D1"/>
<path d="M98.2845 49.9723C100.83 47.1949 100.589 42.928 97.8113 40.3825C95.0339 37.837 90.7621 37.9675 88.2166 40.7448L83.6029 45.7788C81.0574 48.5561 76.7326 48.7445 73.9552 46.199L45.08 19.5668C42.3026 17.0213 38.0308 17.1518 35.4853 19.9291C32.9398 22.7065 33.1282 27.0313 35.9056 29.5768L64.7808 56.209C67.5582 58.7545 67.7465 63.0794 65.201 65.8567L60.6403 70.8328C58.0948 73.6101 58.2832 77.935 61.0606 80.4805C63.8379 83.026 68.1627 82.8376 70.7082 80.0602L98.2845 49.9723Z" fill="#3B91D1"/>
<rect x="41.0039" y="62.8131" width="15" height="15" rx="2" transform="rotate(-48.4607 41.0039 62.8131)" fill="#3B91D1"/>
</svg>
